# xmcd CD database file
#
# Track frame offsets:
#	150
#	16397
#	32756
#	50124
#	64287
#	80388
#	94028
#	107485
#	122429
#	137169
#
# Disc length: 2072 seconds
#
# Revision: 0
# Processed by: cddbd v1.5.2PL0 Copyright (c) Steve Scherf et al.
# Submitted via: CDex 1.79
#
DISCID=8008160a
DTITLE=Richard Lynch - The Last Of A Dying Breed
DYEAR=2013
DGENRE=Country
TTITLE0=Last Of A Dying Breed
TTITLE1=We Drink Alot Alike (featuring Jess McEntyre)
TTITLE2=Beyond The Golden Years
TTITLE3=Boys Making Noise
TTITLE4=The More I Like My Dog
TTITLE5=Walk On By
TTITLE6=You`re Not What I Need
TTITLE7=Too Many Horses
TTITLE8=I Ain`t Missing Nothing Here
TTITLE9=I Stood There And Lied
EXTD=YEAR: 2013
EXTT0=
EXTT1=
EXTT2=
EXTT3=
EXTT4=
EXTT5=
EXTT6=
EXTT7=
EXTT8=
EXTT9=
PLAYORDER=
